HIERARCHY
ROOT Hips
{
	OFFSET 0.00000 0.00000 0.00000
	CHANNELS 6 Xposition Yposition Zposition Zrotation Yrotation Xrotation 
	JOINT LHipJoint
	{
		OFFSET 0 0 0
		CHANNELS 3 Zrotation Yrotation Xrotation
		JOINT LeftUpLeg
		{
			OFFSET 1.48831 -1.59570 0.95625
			CHANNELS 3 Zrotation Yrotation Xrotation
			JOINT LeftLeg
			{
				OFFSET 2.20856 -6.06797 0.00000
				CHANNELS 3 Zrotation Yrotation Xrotation
				JOINT LeftFoot
				{
					OFFSET 2.62924 -7.22379 0.00000
					CHANNELS 3 Zrotation Yrotation Xrotation
					JOINT LeftToeBase
					{
						OFFSET 0.16802 -0.46163 2.41673
						CHANNELS 3 Zrotation Yrotation Xrotation
						End Site
						{
							OFFSET 0.00000 -0.00000 1.23760
						}
					}
				}
			}
		}
	}
	JOINT RHipJoint
	{
		OFFSET 0 0 0
		CHANNELS 3 Zrotation Yrotation Xrotation
		JOINT RightUpLeg
		{
			OFFSET -1.56796 -1.59570 0.95625
			CHANNELS 3 Zrotation Yrotation Xrotation
			JOINT RightLeg
			{
				OFFSET -2.29239 -6.29829 0.00000
				CHANNELS 3 Zrotation Yrotation Xrotation
				JOINT RightFoot
				{
					OFFSET -2.66963 -7.33475 0.00000
					CHANNELS 3 Zrotation Yrotation Xrotation
					JOINT RightToeBase
					{
						OFFSET -0.18185 -0.49964 2.34359
						CHANNELS 3 Zrotation Yrotation Xrotation
						End Site
						{
							OFFSET -0.00000 -0.00000 1.20477
						}
					}
				}
			}
		}
	}
	JOINT LowerBack
	{
		OFFSET 0 0 0
		CHANNELS 3 Zrotation Yrotation Xrotation
		JOINT Spine
		{
			OFFSET 0.03505 2.15832 -0.34324
			CHANNELS 3 Zrotation Yrotation Xrotation
			JOINT Spine1
			{
				OFFSET -0.01089 2.17963 0.04689
				CHANNELS 3 Zrotation Yrotation Xrotation
				JOINT Neck
				{
					OFFSET 0 0 0
					CHANNELS 3 Zrotation Yrotation Xrotation
					JOINT Neck1
					{
						OFFSET 0.04686 1.69404 0.22159
						CHANNELS 3 Zrotation Yrotation Xrotation
						JOINT Head
						{
							OFFSET 0.00265 1.69305 -0.01513
							CHANNELS 3 Zrotation Yrotation Xrotation
							End Site
							{
								OFFSET -0.00415 1.80215 -0.03034
							}
						}
					}
				}
				JOINT LeftShoulder
				{
					OFFSET 0 0 0
					CHANNELS 3 Zrotation Yrotation Xrotation
					JOINT LeftArm
					{
						OFFSET 3.67184 1.11724 -0.19002
						CHANNELS 3 Zrotation Yrotation Xrotation
						JOINT LeftForeArm
						{
							OFFSET 5.17714 -0.00000 -0.00000
							CHANNELS 3 Zrotation Yrotation Xrotation
							JOINT LeftHand
							{
								OFFSET 3.43679 -0.00000 -0.00000
								CHANNELS 3 Zrotation Yrotation Xrotation
								JOINT LeftFingerBase
								{
									OFFSET 0 0 0
									CHANNELS 3 Zrotation Yrotation Xrotation
									JOINT LeftHandIndex1
									{
										OFFSET 0.57312 -0.00000 -0.00000
										CHANNELS 3 Zrotation Yrotation Xrotation
										End Site
										{
											OFFSET 0.46206 -0.00000 -0.00000
										}
									}
								}
								JOINT LThumb
								{
									OFFSET 0 0 0
									CHANNELS 3 Zrotation Yrotation Xrotation
									End Site
									{
										OFFSET 0.46912 -0.00000 0.46912
									}
								}
							}
						}
					}
				}
				JOINT RightShoulder
				{
					OFFSET 0 0 0
					CHANNELS 3 Zrotation Yrotation Xrotation
					JOINT RightArm
					{
						OFFSET -3.59596 0.95831 -0.26050
						CHANNELS 3 Zrotation Yrotation Xrotation
						JOINT RightForeArm
						{
							OFFSET -5.23908 -0.00000 -0.00000
							CHANNELS 3 Zrotation Yrotation Xrotation
							JOINT RightHand
							{
								OFFSET -3.46485 -0.00000 -0.00000
								CHANNELS 3 Zrotation Yrotation Xrotation
								JOINT RightFingerBase
								{
									OFFSET 0 0 0
									CHANNELS 3 Zrotation Yrotation Xrotation
									JOINT RightHandIndex1
									{
										OFFSET -0.60875 -0.00000 -0.00000
										CHANNELS 3 Zrotation Yrotation Xrotation
										End Site
										{
											OFFSET -0.49079 -0.00000 -0.00000
										}
									}
								}
								JOINT RThumb
								{
									OFFSET 0 0 0
									CHANNELS 3 Zrotation Yrotation Xrotation
									End Site
									{
										OFFSET -0.49829 -0.00000 0.49829
									}
								}
							}
						}
					}
				}
			}
		}
	}
}
MOTION
Frames: 9
Frame Time: 0.0384615
0.00 0.00 0.00 -540.9900 -31.4557 534.8480 0.0000 0.0000 0.0000 -19.8463 18.1812 -0.4388 2.5697 9.9636 28.8590 1.5396 -0.3278 -23.3758 0.3941 -4.0306 -11.1629 0.0000 0.0000 0.0000 22.3633 29.1030 -6.6096 -5.2520 -13.6621 41.9003 -0.8301 9.8028 -16.6340 -0.0381 1.2603 -3.4654 5.5897 -2.1367 -4.0021 2.5850 -3.4364 2.4500 -0.7192 -1.6250 4.6298 8.7461 11.8232 1.5302 -5.5592 15.2231 29.4723 -2.2189 6.6365 10.3181 0.0000 -0.0000 0.0000 -80.9119 -0.8544 1.7428 21.3371 -32.2197 -6.2287 -0.0000 0.0000 -26.5780 20.3696 5.5572 2.0592 -7.1250 0.0000 -0.0000 -5.3021 35.8630 1.1949 0.0000 -0.0000 0.0000 85.9150 5.7408 14.7532 -136.5166 50.0035 -98.9296 0.0000 0.0000 22.6280 -17.6341 -24.7756 7.5877 7.1250 -0.0000 -0.0000 12.7697 -55.3637 -3.2878
0.00 0.00 0.00 -548.8820 -33.4523 542.5940 0.0000 0.0000 0.0000 -32.6936 28.3265 -13.7213 2.1855 9.2422 26.5560 1.1635 -13.8459 -20.2362 0.0012 -0.2248 -0.6175 0.0000 0.0000 0.0000 6.4929 20.5960 -26.7844 -9.6834 -17.2279 58.4248 -1.2496 -3.7694 -22.7792 -0.1593 2.5718 -7.0887 -0.4862 -2.5145 -0.6823 -0.4279 -3.3505 -0.1880 -0.1939 -1.6763 0.1917 3.6497 7.1206 -0.8592 1.8440 9.4282 -3.0130 -0.0518 4.6082 -0.6996 -0.0000 0.0000 0.0000 -91.8846 11.0828 1.2477 15.1494 -24.3538 -3.2873 -0.0000 0.0000 -20.4181 13.3360 8.5457 2.0175 -7.1250 0.0000 -0.0000 -11.6520 38.5106 1.8928 -0.0000 0.0000 0.0000 85.4614 12.7540 26.6001 -143.2080 46.0502 -103.9099 0.0000 0.0000 10.9635 -2.3576 -31.0539 1.2166 7.1250 -0.0000 -0.0000 32.3481 -57.9787 -11.0257
0.00 0.00 0.00 -546.1900 -48.0442 541.2810 0.0000 0.0000 0.0000 -26.3417 20.4273 -12.1204 2.7651 10.3048 29.9694 0.6558 -18.8577 -18.4405 0.0044 0.4282 1.1765 0.0000 0.0000 0.0000 11.3124 3.9394 -23.1801 -7.7771 -15.9528 51.7557 -1.9622 -3.4758 -27.8915 -0.0429 1.3370 -3.6766 -0.7008 3.7637 -2.3115 -5.9418 4.7951 -1.9542 -5.6387 2.2834 -0.2650 -6.7174 -4.8505 -2.8287 20.0705 -7.9352 3.8328 6.9566 -3.8699 2.6971 0.0000 -0.0000 0.0000 -87.7736 11.7964 -21.6031 10.5216 -17.5513 -1.6287 -0.0000 0.0000 -18.9730 15.6014 9.6951 2.6923 -7.1250 0.0000 -0.0000 -9.9422 39.8459 1.2777 0.0000 -0.0000 0.0000 92.0585 6.7122 50.4922 -144.0871 45.4531 -104.5396 0.0000 -0.0000 -0.1877 -3.1619 -30.4667 1.6044 7.1250 -0.0000 -0.0000 31.0603 -57.6548 -10.2788
0.00 0.00 0.00 -547.2730 -36.9513 538.9560 0.0000 0.0000 0.0000 -28.8821 26.6094 -9.8253 2.2838 9.4338 27.1619 1.0642 -14.7236 -19.7600 0.0048 0.4467 1.2275 0.0000 0.0000 0.0000 6.1499 5.8037 -24.5371 -7.7427 -15.9267 51.6304 -1.3641 -6.9373 -25.5520 -0.0190 0.8900 -2.4462 1.5976 1.9254 -5.1656 -3.9447 2.4790 -0.5607 -4.8005 1.2315 2.5642 0.3258 1.7408 -2.4925 -5.1093 1.3907 30.8168 -1.9295 -0.8285 10.2481 0.0000 -0.0000 0.0000 -87.4194 2.4310 -10.0390 14.7579 -23.8077 -3.1275 -0.0000 0.0000 -22.4011 15.0341 8.6703 2.3186 -7.1250 0.0000 -0.0000 -10.2363 38.7596 1.5933 0.0000 -0.0000 0.0000 90.8468 29.1852 49.3753 -157.3676 33.6844 -113.0666 0.0000 -0.0000 -19.6066 12.0207 -35.8688 -7.1117 7.1250 -0.0000 -0.0000 50.5637 -58.4484 -19.7958
0.00 0.00 0.00 -546.4730 -39.3470 537.7730 0.0000 0.0000 0.0000 -25.9282 25.6548 -7.1633 2.3792 9.6149 27.7384 1.2499 -14.7512 -21.0909 0.0122 -0.7118 -1.9562 0.0000 0.0000 0.0000 7.8737 3.1800 -22.8759 -7.9603 -16.0900 52.4196 -1.6280 -6.4030 -27.1414 -0.0510 1.4570 -4.0073 0.1368 3.4598 -6.1669 -5.9567 4.2550 -3.8904 -5.9937 1.9173 -0.1044 -10.0335 -4.6348 -0.0317 13.6652 -9.0234 16.9095 5.5022 -4.6288 6.1130 -0.0000 0.0000 0.0000 -85.2007 7.1342 -24.4633 12.2803 -20.2237 -2.1982 -0.0000 0.0000 -22.9677 16.7656 9.7182 2.9112 -7.1250 0.0000 -0.0000 -8.9430 39.9647 1.1203 -0.0000 0.0000 0.0000 89.8215 49.5401 38.8673 -161.7887 28.4268 -115.3506 0.0000 -0.0000 -28.6371 28.7990 -38.0656 -18.7238 7.1250 -0.0000 -0.0000 66.8420 -55.9889 -25.8602
0.00 0.00 0.00 -546.6850 -40.5660 539.6190 0.0000 0.0000 0.0000 -26.3348 26.0060 -9.5141 2.3888 9.6329 27.7958 0.9268 -17.3624 -19.7014 0.0014 -0.2429 -0.6675 0.0000 0.0000 0.0000 7.6032 2.3780 -24.8244 -7.9658 -16.0941 52.4396 -1.6469 -6.1546 -27.1274 -0.0177 0.8580 -2.3581 1.7448 4.4840 -4.5484 -6.0378 5.5140 -4.6549 -7.0564 2.4871 -1.5076 -11.4441 -6.4263 0.6482 11.4319 -9.0167 2.6166 5.1055 -4.5547 1.7080 0.0000 -0.0000 0.0000 -86.2489 8.8944 -27.0992 13.2835 -21.7012 -2.5572 -0.0000 0.0000 -25.3634 17.3311 10.1052 3.1340 -7.1250 0.0000 -0.0000 -8.5232 40.4104 0.9725 0.0000 -0.0000 0.0000 71.0045 64.9186 22.8734 -160.8557 29.5976 -114.8981 0.0000 -0.0000 -24.9212 28.5638 -36.7346 -18.0358 7.1250 -0.0000 -0.0000 65.0567 -55.3001 -23.4406
0.00 0.00 0.00 -546.6560 -42.3168 540.1260 0.0000 0.0000 0.0000 -26.1341 26.1986 -10.1297 2.4125 9.6770 27.9368 0.6018 -19.7438 -18.5013 0.0022 0.3008 0.8265 0.0000 0.0000 0.0000 7.5658 1.7331 -24.7929 -7.9049 -16.0488 52.2192 -1.7250 -6.7558 -28.0227 -0.0160 0.8165 -2.2441 2.7775 4.5897 -3.7276 -5.6623 5.6417 -5.1920 -7.3356 2.5007 -2.4492 -10.8513 -6.8117 1.0391 7.8648 -9.1262 -5.2066 4.5787 -4.5395 -0.9382 -0.0000 -0.0000 0.0000 -86.1353 7.8185 -25.3882 14.1208 -22.9072 -2.8750 -0.0000 0.0000 -26.5817 17.1434 10.2437 3.1399 -7.1250 0.0000 -0.0000 -8.7115 40.5370 0.9670 -0.0000 -0.0000 0.0000 39.9875 71.9326 -5.9935 -159.4603 31.2871 -114.1910 0.0000 -0.0000 -27.1688 26.8106 -36.1998 -16.6189 7.1250 -0.0000 -0.0000 63.0995 -55.3681 -22.3342
0.00 0.00 0.00 -547.2570 -42.7972 540.5730 0.0000 0.0000 0.0000 -26.6632 26.0530 -9.4308 2.3131 9.4899 27.3401 0.5918 -19.8707 -18.4967 0.0037 0.3932 1.0803 0.0000 0.0000 0.0000 6.8380 1.2040 -24.6484 -7.9565 -16.0871 52.4057 -1.7772 -6.5615 -28.2611 -0.0209 0.9328 -2.5638 4.5209 5.3035 -3.7818 -4.7014 6.6123 -5.7382 -7.2852 2.9360 -2.7735 -4.2815 -4.5543 3.0473 -9.3119 -8.2475 -12.4836 -1.7388 -3.6087 -4.4989 0.0000 -0.0000 0.0000 -88.1516 8.9359 -26.8024 11.9307 -19.7007 -2.0789 -0.0000 0.0000 -23.2013 17.2209 10.1098 3.1142 -7.1250 0.0000 -0.0000 -8.6196 40.4057 0.9847 0.0000 -0.0000 0.0000 7.7441 76.6821 -34.5844 -156.1044 35.0537 -112.3535 0.0000 -0.0000 -26.8199 29.5026 -35.7585 -18.2968 7.1250 -0.0000 -0.0000 64.6144 -54.5426 -21.7979
0.00 0.00 0.00 -549.9410 -36.3406 541.1430 0.0000 0.0000 0.0000 -31.0618 28.9588 -8.5010 1.9307 8.7201 24.9237 1.3071 -13.6979 -21.2263 0.0721 -1.7326 -4.7672 0.0000 0.0000 0.0000 3.1425 4.1271 -25.4794 -8.3139 -16.3454 53.6857 -1.6002 -3.2241 -25.2397 -0.0146 0.7800 -2.1437 9.0795 5.3476 -4.0157 -1.2341 6.7157 -4.3340 -6.0712 3.0667 -1.0895 4.0827 6.5652 2.5411 -28.5992 6.2807 -5.2400 -9.7036 2.9897 -0.8052 0.0000 0.0000 0.0000 -90.2133 8.9599 -22.2022 10.9434 -18.2015 -1.7582 -0.0000 0.0000 -21.4839 16.7782 9.3491 2.8041 -7.1250 0.0000 -0.0000 -8.8664 39.5864 1.1938 0.0000 0.0000 0.0000 121.4337 71.8118 85.1399 -151.3917 39.6702 -109.4903 0.0000 -0.0000 -19.4670 30.7146 -36.3651 -19.4053 7.1250 -0.0000 -0.0000 66.2148 -54.6343 -22.9717
